<svg width="112" height="101" viewBox="0 0 112 101" fill="none" xmlns="http://www.w3.org/2000/svg">
<path d="M4 84.6617H108C109.061 84.6617 110.078 85.0875 110.828 85.8452C111.579 86.603 112 87.6308 112 88.7025C112 89.7741 111.579 90.8019 110.828 91.5597C110.078 92.3175 109.061 92.7432 108 92.7432H4C2.93913 92.7432 1.92172 92.3175 1.17157 91.5597C0.421427 90.8019 0 89.7741 0 88.7025C0 87.6308 0.421427 86.603 1.17157 85.8452C1.92172 85.0875 2.93913 84.6617 4 84.6617Z" fill="url(#paint0_linear_222_124)"/>
<path d="M7.14894 93.0871H104.851C104.851 97.0755 101.65 100.309 97.7021 100.309H14.2979C10.3496 100.309 7.14894 97.0755 7.14894 93.0871Z" fill="url(#paint1_linear_222_124)"/>
<path d="M40.9523 20.5694L40.9598 14.7304C40.9638 10.8223 42.552 7.07558 45.3756 4.31352C48.1991 1.55147 52.0269 -1.95404e-06 56.018 0C64.3151 0 71.0386 6.58368 71.0386 14.7082V20.5547C83.164 24.0932 93.5857 31.7833 100.401 42.2214C107.217 52.6595 116.261 75 107 78.5C102.362 80.253 79.1448 79.8268 56.003 80C32.9391 80.1726 9.94951 80.9517 5.49998 78.5C-3.41412 73.5882 4.78396 52.6689 11.5965 42.2342C18.409 31.7996 28.825 24.1105 40.9448 20.5694H40.9523ZM10.8283 70.0392C10.8283 75.8483 38.3436 70.0392 56.003 70.0392C73.6624 70.0392 101.178 75.8483 101.178 70.0392C101.178 64.2302 100.009 58.478 97.7389 53.1111C95.4686 47.7442 92.1411 42.8678 87.9462 38.7601C83.7514 34.6525 78.7714 31.3942 73.2905 29.1711C67.8097 26.9481 61.9354 25.8039 56.003 25.8039C50.0705 25.8039 44.1962 26.9481 38.7154 29.1711C33.2345 31.3942 28.2545 34.6525 24.0597 38.7601C19.8648 42.8678 16.5373 47.7442 14.267 53.1111C11.9968 58.478 10.8283 64.2302 10.8283 70.0392ZM63.5095 18.4314C63.8593 17.0201 63.5095 14.7082 63.5095 14.7082C63.5095 12.7627 62.7202 10.8968 61.3153 9.52112C59.9104 8.14541 58.0049 7.37255 56.018 7.37255C54.0225 7.37255 52.1086 8.14828 50.6968 9.52931C49.285 10.9103 48.4909 12.7837 48.4889 14.7377C48.4889 14.7377 48.1445 17.0306 48.4889 18.4314C49.8896 24.1276 62.0982 24.125 63.5095 18.4314Z" fill="url(#paint2_linear_222_124)"/>
<defs>
<linearGradient id="paint0_linear_222_124" x1="0" y1="92.4853" x2="112" y2="92.4853" gradientUnits="userSpaceOnUse">
<stop stop-color="#525DC0"/>
<stop offset="1" stop-color="#8E54E9"/>
</linearGradient>
<linearGradient id="paint1_linear_222_124" x1="0" y1="92.4853" x2="112" y2="92.4853" gradientUnits="userSpaceOnUse">
<stop stop-color="#525DC0"/>
<stop offset="1" stop-color="#8E54E9"/>
</linearGradient>
<linearGradient id="paint2_linear_222_124" x1="3.29414" y1="38.7059" x2="108.706" y2="38.7059" gradientUnits="userSpaceOnUse">
<stop stop-color="#525DC0"/>
<stop offset="1" stop-color="#8E54E9"/>
</linearGradient>
</defs>
</svg>
